<mxfile host="app.diagrams.net" modified="2023-02-19T03:48:29.109Z" agent="5.0 (Macintosh; Intel Mac OS X 10_15_7) AppleWebKit/537.36 (KHTML, like Gecko) Chrome/110.0.0.0 Safari/537.36" etag="YaMmfslfAotTWKfSkHjq" version="20.8.18" type="github">
  <diagram name="Page-1" id="xR51gsvur97eCKODgOBL">
    <mxGraphModel dx="954" dy="617" grid="1" gridSize="10" guides="1" tooltips="1" connect="1" arrows="1" fold="1" page="1" pageScale="1" pageWidth="850" pageHeight="1100" math="0" shadow="0">
      <root>
        <mxCell id="0" />
        <mxCell id="1" parent="0" />
        <mxCell id="qmPyTNHQybEkA9Gj_RSF-1" value="&lt;h1&gt;&lt;span style=&quot;background-color: initial;&quot;&gt;Büchi Automaton of an Online Credit Transaction&lt;/span&gt;&lt;/h1&gt;&lt;h1&gt;&lt;span style=&quot;background-color: initial; font-size: 12px; font-weight: normal;&quot;&gt;A := { &lt;i&gt;Q, Σ, δ, q&lt;sub&gt;0&lt;/sub&gt;&amp;nbsp;&lt;/i&gt;&lt;/span&gt;&lt;br&gt;&lt;/h1&gt;" style="text;html=1;strokeColor=none;fillColor=none;spacing=5;spacingTop=-20;whiteSpace=wrap;overflow=hidden;rounded=0;" vertex="1" parent="1">
          <mxGeometry x="40" y="40" width="760" height="140" as="geometry" />
        </mxCell>
      </root>
    </mxGraphModel>
  </diagram>
</mxfile>
